<?xml version="1.0" standalone="no"?>
<!DOCTYPE svg PUBLIC "-//W3C//DTD SVG 20010904//EN"
 "http://www.w3.org/TR/2001/REC-SVG-20010904/DTD/svg10.dtd">
<svg version="1.0" xmlns="http://www.w3.org/2000/svg"
 width="996.000000pt" height="996.000000pt" viewBox="0 0 996.000000 996.000000"
 preserveAspectRatio="xMidYMid meet">
<metadata>
Created by potrace 1.14, written by Peter Selinger 2001-2017
</metadata>
<g transform="translate(0.000000,996.000000) scale(0.100000,-0.100000)"
fill="#000000" stroke="none">
<path d="M0 4980 l0 -4980 4980 0 4980 0 0 4980 0 4980 -4980 0 -4980 0 0
-4980z m4445 1342 c61 -11 155 -32 210 -47 97 -26 282 -91 298 -105 7 -6 -97
-307 -112 -323 -4 -4 -45 7 -92 24 -120 45 -267 86 -394 111 -89 17 -146 22
-300 22 -179 0 -195 -2 -284 -28 -277 -83 -416 -284 -382 -555 35 -276 180
-397 731 -606 179 -68 348 -144 457 -203 319 -176 463 -409 463 -749 0 -462
-281 -785 -780 -897 -141 -31 -258 -39 -504 -33 -339 8 -529 39 -738 119 l-78
29 0 185 c0 101 2 184 4 184 3 0 42 -14 88 -31 128 -47 308 -95 468 -125 129
-24 169 -27 360 -27 207 1 219 2 332 31 66 17 148 47 188 68 132 69 231 197
261 335 7 34 9 94 6 161 -10 175 -65 280 -196 380 -92 69 -305 172 -570 273
-404 155 -582 264 -722 443 -171 217 -220 601 -110 863 114 271 379 453 751
514 122 21 496 13 645 -13z m3135 -187 l0 -175 -735 0 -735 0 0 -610 0 -610
690 0 690 0 0 -165 0 -165 -690 0 -690 0 0 -715 0 -715 -195 0 -195 0 0 1665
0 1665 930 0 930 0 0 -175z m-5345 -2659 c52 -27 64 -39 90 -90 27 -55 30 -68
30 -160 0 -91 -3 -107 -28 -159 -40 -81 -111 -127 -211 -134 -40 -3 -89 0
-113 6 -57 16 -123 68 -153 121 -23 41 -25 56 -25 165 0 109 2 124 25 165 69
123 242 162 385 86z"/>
</g>
</svg>
